<?xml version="1.0" standalone="no"?>
<!DOCTYPE svg PUBLIC "-//W3C//DTD SVG 20010904//EN"
 "http://www.w3.org/TR/2001/REC-SVG-20010904/DTD/svg10.dtd">
<svg version="1.0" xmlns="http://www.w3.org/2000/svg"
 width="512.000000pt" height="512.000000pt" viewBox="0 0 512.000000 512.000000"
 preserveAspectRatio="xMidYMid meet">
<metadata>
Created by potrace 1.11, written by Peter Selinger 2001-2013
</metadata>
<g transform="translate(0.000000,512.000000) scale(0.100000,-0.100000)"
fill="#000000" stroke="none">
<path d="M570 4549 c-76 -23 -149 -99 -168 -174 -7 -26 -10 -318 -9 -805 2
-855 -3 -797 74 -873 63 -63 115 -78 253 -70 82 5 1582 -5 1587 -11 3 -3 7
-576 7 -1273 1 -1216 2 -1270 20 -1305 l18 -38 213 0 213 0 18 38 c18 35 19
89 20 1305 0 697 4 1270 7 1273 5 6 1505 16 1587 11 138 -8 190 7 253 70 77
76 72 15 72 893 0 878 5 817 -72 893 -53 54 -97 72 -178 72 -81 0 -125 -18
-178 -72 -76 -75 -72 -39 -74 -703 0 -327 -2 -608 -2 -625 l-1 -30 -381 2
c-210 1 -384 5 -387 8 -3 2 -6 283 -6 622 -1 690 3 651 -73 726 -53 54 -97 72
-178 72 -81 0 -125 -18 -178 -72 -76 -75 -72 -36 -73 -726 0 -339 -4 -620 -7
-624 -9 -8 -755 -8 -764 0 -3 4 -7 285 -7 624 -1 690 3 651 -73 726 -53 54
-97 72 -178 72 -81 0 -125 -18 -178 -72 -76 -75 -72 -36 -73 -726 0 -339 -3
-620 -6 -622 -3 -3 -177 -7 -387 -8 l-381 -2 -1 30 c0 17 -2 298 -2 625 -2
553 -3 598 -20 631 -23 47 -79 103 -124 124 -44 21 -136 28 -183 14z"/>
</g>
</svg>
